#!OML:ASF X:\für Bonn\!DataBase\2005_08_12_Daniel\c3d\Daniel.ASF
:FULLY-SPECIFIED
:DEGREES
106
root 0.706403 13.6431 1.44328 169.427 -8.63321 -181.378
lowerback 63.1124 -1.24094 11.5166
upperback 12.212 -2.62787 -0.747088
thorax -7.47632 -4.1876 -4.14441
lowerneck 6.03992 -5.23919 -3.76054
upperneck 8.59686 -8.17505 7.25081
head 2.21964 -4.24374 2.97936
rclavicle 1.98785e-014 -1.51076e-014
rhumerus 7.33242 14.3525 -66.3276
rradius 52.1089
rwrist -37.9527
rhand -16.058 7.04465
rfingers 7.12502
rthumb 10.1442 -22.6908
lclavicle 1.98785e-014 -1.51076e-014
lhumerus -24.3034 10.1488 86.2918
lradius 48.4786
lwrist -6.93972
lhand -12.3516 -7.97332
lfingers 7.12502
lthumb 13.7181 21.5545
rfemur -47.4404 -14.3861 12.0422
rtibia 93.9408
rfoot -28.0075 10.2258
rtoes -10.1156
lfemur -46.6034 7.4694 -17.7328
ltibia 95.235
lfoot -35.7169 -10.8755
ltoes -7.07489
107
root 0.707914 13.498 1.43926 169.102 -8.92144 -181.492
lowerback 63.8639 -1.42756 11.7577
upperback 12.1429 -2.69573 -0.723659
thorax -7.53735 -4.2553 -4.15306
lowerneck 6.18734 -5.3846 -3.67964
upperneck 8.58658 -8.37615 7.28532
head 2.20171 -4.34319 2.9789
rclavicle -4.29375e-014 -2.62396e-014
rhumerus 7.77469 14.2468 -65.6148
rradius 51.3707
rwrist -37.4586
rhand -15.969 6.97573
rfingers 7.12502
rthumb 10.2301 -22.7555
lclavicle -4.29375e-014 -2.62396e-014
lhumerus -24.3294 9.62501 86.3046
lradius 48.8491
lwrist -6.73638
lhand -12.3882 -7.93952
lfingers 7.12502
lthumb 13.6828 21.5907
rfemur -48.2342 -14.7812 11.5832
rtibia 95.7585
rfoot -27.9462 10.611
rtoes -10.1351
lfemur -47.3255 7.74207 -17.7697
ltibia 96.7962
lfoot -35.8801 -11.4403
ltoes -6.7821
108
root 0.709467 13.3512 1.43505 168.758 -9.2221 -181.616
lowerback 64.6638 -1.62735 11.9957
upperback 12.0344 -2.75661 -0.679127
thorax -7.63552 -4.32215 -4.13399
lowerneck 6.31814 -5.52755 -3.71419
upperneck 8.56248 -8.57877 7.36094
head 2.19042 -4.44548 3.01336
rclavicle -1.11319e-014 -1.66979e-014
rhumerus 8.19838 14.1692 -64.8735
rradius 50.5755
rwrist -36.9111
rhand -15.9206 7.02155
rfingers 7.12502
rthumb 10.2767 -22.7074
lclavicle -1.11319e-014 -1.66979e-014
lhumerus -24.4032 9.13382 86.3481
lradius 49.2089
lwrist -6.61364
lhand -12.4029 -7.95427
lfingers 7.12502
lthumb 13.6687 21.5769
rfemur -48.9871 -15.1889 11.073
rtibia 97.5433
rfoot -27.7903 11.0961
rtoes -9.77988
lfemur -48.0369 8.02262 -17.8198
ltibia 98.3616
lfoot -36.0333 -11.9615
ltoes -6.60104
109
root 0.711667 13.2033 1.42902 168.429 -9.52121 -181.769
lowerback 65.4315 -1.83548 12.227
upperback 11.9357 -2.83125 -0.659462
thorax -7.72056 -4.39126 -4.13514
lowerneck 6.34163 -5.6807 -3.73501
upperneck 8.61135 -8.79795 7.42445
head 2.22227 -4.55253 3.03658
rclavicle 3.02153e-014 -2.78299e-014
rhumerus 8.61867 14.1302 -64.1231
rradius 49.8052
rwrist -36.3982
rhand -15.9193 6.97152
rfingers 7.12502
rthumb 10.278 -22.7574
lclavicle 3.02153e-014 -2.78299e-014
lhumerus -24.4637 8.604 86.3805
lradius 49.5649
lwrist -6.46237
lhand -12.4304 -7.88048
lfingers 7.12502
lthumb 13.6422 21.6525
rfemur -49.7457 -15.6366 10.5214
rtibia 99.3214
rfoot -27.6237 11.5977
rtoes -9.60797
lfemur -48.771 8.32308 -17.8825
ltibia 99.923
lfoot -36.1493 -12.5536
ltoes -6.29223
110
root 0.714171 13.0582 1.42122 168.066 -9.82797 -181.923
lowerback 66.1946 -2.05394 12.4657
upperback 11.855 -2.91976 -0.632743
thorax -7.77916 -4.46981 -4.12547
lowerneck 6.26384 -5.83787 -3.75941
upperneck 8.69552 -9.0202 7.46818
head 2.2832 -4.658 3.04947
rclavicle -2.62396e-014 -2.78299e-014
rhumerus 9.0859 14.123 -63.3416
rradius 48.992
rwrist -35.9194
rhand -15.927 6.96008
rfingers 7.12502
rthumb 10.2706 -22.7692
lclavicle -2.62396e-014 -2.78299e-014
lhumerus -24.5096 8.13409 86.4025
lradius 49.9041
lwrist -6.3879
lhand -12.4476 -7.90533
lfingers 7.12502
lthumb 13.6256 21.6287
rfemur -50.4258 -16.1079 9.96747
rtibia 101.04
rfoot -27.4881 12.0143
rtoes -9.65895
lfemur -49.4457 8.61684 -17.9366
ltibia 101.465
lfoot -36.2612 -13.127
ltoes -6.0528
